<svg width="92" height="62" viewBox="0 0 92 62" fill="none" xmlns="http://www.w3.org/2000/svg">
<path d="M88.17 32.1571C87.5395 34.4041 86.5986 36.6022 85.3566 38.7152C83.0255 42.6829 79.7314 46.2156 75.561 49.219C69.8712 53.3158 62.8165 56.1978 55.155 57.5513C54.4268 57.6806 53.6703 57.7988 52.909 57.9027C52.6908 57.9325 52.4723 57.9592 52.2539 57.9866C51.2656 58.1099 50.2766 58.2082 49.3003 58.2797C49.213 58.286 49.1251 58.2939 49.038 58.2998H49.0365C48.0498 58.3692 47.0426 58.4133 46.0434 58.4338H46.0418V58.434C45.8795 58.4371 45.7157 58.4385 45.5516 58.44C45.3872 58.4385 45.2228 58.4371 45.0614 58.434V58.4338C44.0606 58.4132 43.0535 58.3692 42.0652 58.2998C41.8672 58.2864 41.6676 58.2697 41.4684 58.254C40.6329 58.1878 39.7892 58.1028 38.9451 57.9988C38.6947 57.9679 38.4443 57.9368 38.1942 57.9027C37.4314 57.7988 36.6764 57.6806 35.9466 57.5513C28.2867 56.1978 21.232 53.3158 15.5421 49.219C11.3717 46.2172 8.07604 42.6829 5.74652 38.7152C4.50455 36.6022 3.56361 34.4041 2.93316 32.1571H0C0.687177 34.9083 1.79365 37.5886 3.30038 40.1523C5.83164 44.4619 9.39208 48.2861 13.8841 51.5195C19.9174 55.8653 27.3757 58.9159 35.4517 60.3435C36.2161 60.479 37.0105 60.6035 37.8127 60.7138C39.1682 60.8981 40.5331 61.0384 41.8681 61.1298H41.8697C42.9021 61.2023 43.9565 61.2495 45.0046 61.27V61.2697C45.0051 61.2697 45.0057 61.2697 45.0062 61.2697C45.1827 61.2731 45.3608 61.2746 45.5389 61.2764H45.5519H45.5646C45.7424 61.2747 45.9205 61.2731 46.0984 61.2697V61.2701C47.1465 61.2496 48.201 61.2023 49.2333 61.1298C50.5699 61.0385 51.9348 60.8982 53.2903 60.7138H53.2919C54.0925 60.6035 54.8853 60.479 55.6513 60.3435C63.7273 58.9159 71.1856 55.8654 77.2189 51.5195C81.7109 48.2862 85.2713 44.4619 87.8026 40.1523C89.3094 37.5887 90.4158 34.9084 91.103 32.1572L88.17 32.1571Z" fill="white"/>
<path d="M13.4019 42.8973C17.2744 46.7247 22.3337 49.8099 28.1433 51.904C28.9283 52.1892 29.7273 52.454 30.539 52.6998C30.6777 52.7423 30.8165 52.7833 30.9567 52.8242C31.3444 52.9392 31.7338 53.0495 32.1214 53.152C36.254 54.2613 40.5963 54.8726 45.0315 54.9656H45.0771C45.2237 54.9687 45.3703 54.9719 45.5311 54.9735H45.5862C45.7328 54.9719 45.8794 54.9687 46.026 54.9656H46.0732C50.5069 54.8726 54.8491 54.2613 58.9801 53.152C59.3678 53.0495 59.7571 52.9392 60.1449 52.8258C60.2851 52.7833 60.4254 52.7423 60.5641 52.6998C61.3743 52.4539 62.1734 52.1892 62.9567 51.9056C68.7678 49.8114 73.8288 46.7246 77.7013 42.8972C82.2516 38.4017 84.9609 33.071 85.5362 27.482L85.6607 26.2797L84.4928 25.9677C82.9309 25.5502 81.3327 25.246 79.7156 25.0601L78.037 27.7499C79.5611 27.8586 81.071 28.0808 82.551 28.4101C81.2144 36.421 74.9399 43.4755 65.5194 47.8009C64.8574 48.105 64.1812 48.3965 63.4894 48.6722L76.5932 27.6806L78.3128 24.9278L83.153 17.1737L81.7928 16.4662C78.1142 14.5517 74.1676 13.5811 70.0586 13.5811C66.7645 13.5811 63.5603 14.2114 60.5152 15.453C60.326 15.0748 60.1322 14.6998 59.932 14.3295C56.671 8.29614 51.8764 3.39249 46.2213 0.359247L45.5515 0L44.8816 0.359247C39.2265 3.39249 34.4303 8.29768 31.1709 14.3311C30.9708 14.6998 30.7753 15.0748 30.5878 15.4531C27.5427 14.2114 24.3384 13.5811 21.0443 13.5811C16.9354 13.5811 12.9887 14.5517 9.31008 16.4663L7.9499 17.1738L12.7902 24.9279L14.5082 27.6806L27.612 48.6723C26.9201 48.3965 26.2424 48.105 25.5804 47.8009C16.16 43.4756 9.88856 36.4211 8.55201 28.4102C10.032 28.0808 11.5404 27.8587 13.0644 27.7499L11.3859 25.0602C9.76876 25.2461 8.1722 25.5502 6.61023 25.9678L5.44232 26.2798L5.56683 27.482C6.14228 33.0712 8.85165 38.4018 13.4019 42.8973ZM63.3587 43.5275C63.3587 43.5291 63.3587 43.5291 63.3587 43.5307L63.3572 43.5331C63.3576 43.5313 63.3582 43.5294 63.3587 43.5275C64.205 40.2343 64.6401 36.8024 64.6401 33.3264C64.6401 32.6015 64.6212 31.8752 64.5834 31.1503C64.4131 31.2197 64.2398 31.2953 64.0585 31.3741C63.4738 31.6325 62.8922 31.913 62.3295 32.2123C62.1498 32.3069 61.9701 32.4046 61.7936 32.5038C61.7999 32.778 61.8031 33.0522 61.8031 33.3263C61.8031 38.8445 60.6305 44.2382 58.3955 49.0645C58.1591 49.5719 57.9132 50.073 57.6531 50.5678C57.5838 50.5851 57.516 50.6025 57.4466 50.6182C54.091 51.4612 50.592 51.956 47.0221 52.0994C48.0702 43.3526 53.7238 35.3401 61.7384 31.0983C62.3294 30.7847 62.9347 30.4916 63.5509 30.2206C63.863 30.0835 64.1766 29.9511 64.4934 29.8251C66.7756 28.9112 69.1493 28.2872 71.5923 27.9547C72.1218 27.8823 72.653 27.8239 73.1889 27.7798L63.3587 43.5275ZM33.737 15.5508C36.5993 10.3021 40.7145 6.00037 45.5517 3.23028C50.3888 6.00037 54.504 10.3021 57.3663 15.5508C57.568 15.9179 57.7619 16.2882 57.9494 16.6648C52.5292 19.5956 48.1727 24.4015 45.5517 30.2821C42.9306 24.4016 38.5742 19.5957 33.1539 16.6648C33.3414 16.2882 33.5353 15.9179 33.737 15.5508ZM12.0086 18.3161C14.874 17.0556 17.908 16.4174 21.0445 16.4174C23.932 16.4174 26.7438 16.9626 29.4185 18.0404C29.8393 18.209 30.2569 18.3918 30.6715 18.5887C31.1159 18.7983 31.5541 19.0236 31.9844 19.2616C37.7436 22.4382 42.1535 28.0068 44.1946 34.7509L45.5517 39.2369L46.9087 34.7509C48.9498 28.0068 53.3598 22.4382 59.1189 19.2616C59.5492 19.0236 59.9874 18.7983 60.4319 18.5887C60.8464 18.3918 61.264 18.209 61.6849 18.0404C64.3596 16.9626 67.1713 16.4174 70.0588 16.4174C73.1953 16.4174 76.2293 17.0556 79.0963 18.3161L75.0221 24.8443C74.5098 24.8553 73.9992 24.879 73.4916 24.9136C70.2669 25.1295 67.1367 25.8023 64.1452 26.9195C64.079 26.4956 64.0066 26.0749 63.9261 25.6558C63.5101 23.4482 62.9143 21.2958 62.142 19.2158C61.7479 19.3734 61.3586 19.5451 60.9709 19.7279C60.4965 19.9516 60.0299 20.1928 59.5729 20.448C60.3121 22.4854 60.8716 24.5984 61.2451 26.7698C61.3192 27.2015 61.3854 27.6333 61.4453 28.0681C53.9429 31.6844 48.1696 38.2725 45.5517 45.9052C42.9337 38.2725 37.1604 31.6844 29.6581 28.0681C29.718 27.6333 29.7841 27.1999 29.8582 26.7698C30.2318 24.5984 30.7913 22.4854 31.5305 20.448C31.0734 20.1927 30.6085 19.9516 30.134 19.7279C29.7463 19.5451 29.3554 19.3734 28.9614 19.2158C28.1891 21.2957 27.5933 23.4497 27.1756 25.6573C27.0968 26.0764 27.0243 26.4972 26.9581 26.9195C23.9682 25.8023 20.838 25.1294 17.6133 24.9136C17.1058 24.8789 16.5951 24.8553 16.0829 24.8443L12.0086 18.3161ZM17.9159 27.7799C18.4502 27.824 18.9829 27.8823 19.5109 27.9548C21.9539 28.2872 24.3276 28.9112 26.6098 29.8251C26.9265 29.9512 27.2402 30.0835 27.5523 30.2206C28.1686 30.4917 28.7738 30.7847 29.3648 31.0983C37.3794 35.3401 43.0329 43.3526 44.081 52.0994C40.5111 51.956 37.0137 51.4613 33.6582 50.6198C33.5888 50.6025 33.5194 50.5852 33.4501 50.5678C33.1901 50.0731 32.9442 49.572 32.7077 49.0646C30.4728 44.2382 29.3001 38.8445 29.3001 33.3264C29.3001 33.0522 29.3033 32.778 29.3096 32.5039C29.1331 32.4046 28.955 32.3069 28.7753 32.2124C28.2111 31.913 27.6295 31.6325 27.0447 31.3741C26.8635 31.2953 26.6885 31.2197 26.5199 31.1504C26.4821 31.8752 26.4632 32.6016 26.4632 33.3264C26.4632 36.8009 26.8966 40.2312 27.743 43.5229L17.9159 27.7799Z" fill="white"/>
</svg>
